<?xml version="1.0" standalone="no"?>
<!DOCTYPE svg PUBLIC "-//W3C//DTD SVG 20010904//EN"
 "http://www.w3.org/TR/2001/REC-SVG-20010904/DTD/svg10.dtd">
<svg version="1.0" xmlns="http://www.w3.org/2000/svg"
 width="1275.000000pt" height="1650.000000pt" viewBox="0 0 1275.000000 1650.000000"
 preserveAspectRatio="xMidYMid meet">

<g transform="translate(0.000000,1650.000000) scale(0.100000,-0.100000)"
fill="#000000" stroke="none">
<path d="M6510 11749 c-101 -13 -1185 -217 -1275 -240 -182 -47 -398 -144
-565 -255 -918 -609 -1377 -1989 -1139 -3419 11 -66 22 -121 23 -122 4 -5
1068 196 1074 202 3 3 -2 54 -11 113 -91 574 -82 1106 29 1619 180 838 613
1498 1207 1837 47 27 50 27 120 16 361 -60 704 -212 1018 -451 210 -159 424
-375 608 -613 101 -130 359 -541 347 -554 -2 -1 -137 -27 -302 -57 -164 -31
-307 -59 -316 -63 -13 -5 80 -70 367 -257 212 -137 482 -313 600 -390 118 -77
307 -200 420 -274 120 -78 210 -130 215 -125 16 16 751 1477 745 1482 -2 3
-141 -21 -309 -52 -167 -31 -310 -56 -318 -56 -8 0 -36 39 -62 88 -179 323
-402 619 -652 862 -417 406 -866 638 -1364 705 -113 16 -355 18 -460 4z"/>
<path d="M5881 10490 c-300 -42 -558 -233 -691 -511 -62 -130 -82 -221 -84
-374 -2 -261 85 -474 269 -656 272 -269 686 -335 1030 -165 475 235 646 820
375 1278 -85 142 -262 297 -412 360 -147 62 -339 89 -487 68z"/>
</g>
</svg>
